<?xml version="1.0" encoding="utf-8"?>
<!-- Generator: Adobe Illustrator 16.0.0, SVG Export Plug-In . SVG Version: 6.00 Build 0)  -->
<!DOCTYPE svg PUBLIC "-//W3C//DTD SVG 1.1//EN" "http://www.w3.org/Graphics/SVG/1.1/DTD/svg11.dtd">
<svg version="1.1" id="Layer_1" xmlns="http://www.w3.org/2000/svg" xmlns:xlink="http://www.w3.org/1999/xlink" x="0px" y="0px"
	 width="32px" height="32px" viewBox="0 0 32 32" enable-background="new 0 0 32 32" xml:space="preserve">
<g enable-background="new    ">
	<path fill="black" d="M18.758,18.095h-6.922l-1.213,2.821c-0.299,0.694-0.448,1.213-0.448,1.556c0,0.272,0.129,0.512,0.389,0.719
		c0.259,0.206,0.82,0.341,1.681,0.401v0.488H6.615v-0.488c0.747-0.131,1.23-0.303,1.45-0.514c0.448-0.422,0.945-1.279,1.49-2.57
		l6.289-14.713h0.461l6.222,14.872c0.502,1.195,0.956,1.971,1.365,2.326c0.408,0.356,0.978,0.557,1.707,0.6v0.488h-7.053v-0.488
		c0.711-0.034,1.192-0.153,1.443-0.355c0.25-0.202,0.375-0.448,0.375-0.738c0-0.387-0.176-0.997-0.527-1.832L18.758,18.095z
		 M18.389,17.119l-3.033-7.225l-3.111,7.225H18.389z"/>
</g>
</svg>
