<?xml version="1.0" encoding="utf-8"?>
<!-- Generator: Adobe Illustrator 16.0.0, SVG Export Plug-In . SVG Version: 6.00 Build 0)  -->
<!DOCTYPE svg PUBLIC "-//W3C//DTD SVG 1.1//EN" "http://www.w3.org/Graphics/SVG/1.1/DTD/svg11.dtd">
<svg version="1.1" id="Layer_2" xmlns="http://www.w3.org/2000/svg" xmlns:xlink="http://www.w3.org/1999/xlink" x="0px" y="0px"
	 width="32px" height="32px" viewBox="0 0 32 32" enable-background="new 0 0 32 32" xml:space="preserve">
<path fill="black" d="M20.313,9.255l0.795-2.099C18.875,6,16.973,6.043,16.973,6.043V2.959H15v3.212c-4.375,0.829-4.73,4.255-4.73,4.255
	c-0.854,4.365,4.563,6.116,4.563,6.116c4.792,1.583,4.206,4.034,4.206,4.034c-0.122,2.466-2.439,2.939-2.439,2.939
	c-3.308,0.608-5.924-1.191-5.924-1.191l-0.763,2.131c1.712,1.42,4.865,1.4,4.865,1.4v3.211h2.003V25.76
	c4.219-0.593,4.923-4.377,4.923-4.377c0.588-4.883-3.806-6.395-3.806-6.395C14,13.5,13.236,12.151,13.236,12.151
	C12,9.25,14.958,8.25,14.958,8.25C18.125,7.542,20.313,9.255,20.313,9.255z"/>
</svg>
