<?xml version="1.0" encoding="utf-8"?>
<!-- Generator: Adobe Illustrator 16.0.0, SVG Export Plug-In . SVG Version: 6.00 Build 0)  -->
<!DOCTYPE svg PUBLIC "-//W3C//DTD SVG 1.1//EN" "http://www.w3.org/Graphics/SVG/1.1/DTD/svg11.dtd">
<svg version="1.1" id="Layer_1" xmlns="http://www.w3.org/2000/svg" xmlns:xlink="http://www.w3.org/1999/xlink" x="0px" y="0px"
	 width="32px" height="32px" viewBox="0 0 32 32" enable-background="new 0 0 32 32" xml:space="preserve">
<path fill="black" d="M9.852,26.877v-2.796c-1.667-0.028-3.391-0.526-4.396-1.218l0.689-1.855c1.034,0.665,2.528,1.191,4.138,1.191
	c2.04,0,3.419-1.135,3.419-2.713c0-1.522-1.121-2.464-3.247-3.294c-2.931-1.107-4.741-2.38-4.741-4.789
	c0-2.297,1.695-4.042,4.339-4.457V4.152h1.781v2.685c1.724,0.056,2.902,0.499,3.735,0.969l-0.718,1.827
	C14.248,9.3,13.069,8.691,11.23,8.691c-2.212,0-3.045,1.273-3.045,2.381c0,1.439,1.063,2.159,3.563,3.155
	c2.959,1.163,4.453,2.602,4.453,5.066c0,2.186-1.58,4.234-4.54,4.705v2.879H9.852z"/>
<path fill="black" d="M20.773,17.851v0.899h-3.55v-0.899H20.773z"/>
<path fill="black" d="M24.337,23.234v-1.398c-0.834-0.014-1.696-0.263-2.199-0.608l0.345-0.927c0.518,0.332,1.265,0.594,2.07,0.594
	c1.021,0,1.71-0.566,1.71-1.355c0-0.762-0.561-1.232-1.624-1.646c-1.466-0.555-2.372-1.191-2.372-2.395
	c0-1.148,0.849-2.021,2.171-2.228v-1.398h0.892v1.343c0.862,0.027,1.451,0.249,1.868,0.484l-0.359,0.913
	c-0.302-0.166-0.892-0.47-1.812-0.47c-1.106,0-1.523,0.637-1.523,1.19c0,0.72,0.532,1.08,1.782,1.578
	c1.48,0.581,2.229,1.302,2.229,2.532c0,1.094-0.791,2.118-2.271,2.354v1.439H24.337z"/>
</svg>
