<?xml version="1.0" encoding="utf-8"?>
<!-- Generator: Adobe Illustrator 16.0.0, SVG Export Plug-In . SVG Version: 6.00 Build 0)  -->
<!DOCTYPE svg PUBLIC "-//W3C//DTD SVG 1.1//EN" "http://www.w3.org/Graphics/SVG/1.1/DTD/svg11.dtd">
<svg version="1.1" id="Layer_1" xmlns="http://www.w3.org/2000/svg" xmlns:xlink="http://www.w3.org/1999/xlink" x="0px" y="0px"
	 width="32px" height="32px" viewBox="0 0 32 32" enable-background="new 0 0 32 32" xml:space="preserve">
<path fill="black"  d="M6.197,23.158v-1.41c-0.841-0.015-1.71-0.266-2.218-0.615l0.348-0.936c0.522,0.336,1.276,0.602,2.087,0.602
	c1.029,0,1.725-0.573,1.725-1.369c0-0.768-0.565-1.242-1.638-1.661c-1.479-0.559-2.392-1.2-2.392-2.416
	c0-1.159,0.855-2.039,2.189-2.248v-1.41h0.898v1.354c0.87,0.028,1.464,0.251,1.885,0.489L8.72,14.459
	c-0.305-0.167-0.899-0.475-1.827-0.475c-1.116,0-1.537,0.642-1.537,1.201c0,0.726,0.536,1.089,1.797,1.592
	c1.493,0.586,2.247,1.313,2.247,2.555c0,1.104-0.797,2.137-2.291,2.373v1.453H6.197z"/>
<path fill="black" d="M14.486,17.727v0.908h-3.58v-0.908H14.486z"/>
<path fill="black" d="M20.178,27.217v-2.818c-1.68-0.027-3.419-0.529-4.433-1.228l0.696-1.87c1.043,0.67,2.55,1.2,4.173,1.2
	c2.057,0,3.447-1.144,3.447-2.735c0-1.535-1.129-2.483-3.273-3.321c-2.956-1.116-4.782-2.4-4.782-4.828
	c0-2.316,1.709-4.075,4.375-4.493V4.305h1.797v2.707c1.738,0.056,2.926,0.502,3.767,0.977l-0.724,1.842
	c-0.609-0.335-1.797-0.949-3.652-0.949c-2.23,0-3.07,1.284-3.07,2.4c0,1.451,1.072,2.177,3.593,3.182
	c2.984,1.172,4.491,2.624,4.491,5.107c0,2.205-1.594,4.271-4.578,4.744v2.902H20.178z"/>
</svg>
