<?xml version="1.0" encoding="utf-8"?>
<!-- Generator: Adobe Illustrator 16.0.0, SVG Export Plug-In . SVG Version: 6.00 Build 0)  -->
<!DOCTYPE svg PUBLIC "-//W3C//DTD SVG 1.1//EN" "http://www.w3.org/Graphics/SVG/1.1/DTD/svg11.dtd">
<svg version="1.1" id="Layer_1" xmlns="http://www.w3.org/2000/svg" xmlns:xlink="http://www.w3.org/1999/xlink" x="0px" y="0px"
	 width="90px" height="72px" viewBox="0 0 90 72" enable-background="new 0 0 90 72" xml:space="preserve">
<title>Group 3</title>
<desc>Created with Sketch.</desc>
<g id="Page-1">
	<g id="Group-3">
		<g id="mbri-cart-add">
			<path id="Shape" fill="#E1E1E1" d="M74.218,0c-8.512,0-15.443,6.958-15.443,15.5S65.706,31,74.218,31
				c8.511,0,15.442-6.958,15.442-15.5S82.729,0,74.218,0z M82.683,6.917c4.74,4.674,4.779,12.26,0.087,17.018
				c-4.691,4.758-12.277,4.824-17.017,0.149c-4.741-4.675-4.78-12.261-0.088-17.019C70.356,2.308,77.943,2.242,82.683,6.917z
				 M80.264,9.369c-0.677-0.668-1.761-0.659-2.432,0.021l-3.627,3.679l-3.664-3.614c-0.679-0.668-1.762-0.658-2.432,0.021
				c-0.671,0.68-0.664,1.763,0.013,2.431l3.664,3.614L68.158,19.2c-0.671,0.68-0.665,1.764,0.013,2.432
				c0.677,0.667,1.761,0.658,2.432-0.022l3.627-3.679l3.664,3.614c0.679,0.668,1.763,0.659,2.433-0.021s0.663-1.764-0.014-2.432
				l-3.664-3.614l3.628-3.679C80.947,11.121,80.941,10.036,80.264,9.369z M31.375,39h35.857c0.828,0,1.494,0.669,1.494,1.5
				S68.061,42,67.232,42H31.375c-0.828,0-1.495-0.669-1.495-1.5S30.548,39,31.375,39z M28.387,27h29.867
				c0.828,0,1.494,0.669,1.494,1.5S59.082,30,58.254,30H28.387c-0.828,0-1.495-0.669-1.495-1.5S27.559,27,28.387,27z M64.254,57
				c-4.109,0-7.473,3.375-7.473,7.5s3.363,7.5,7.473,7.5s7.473-3.375,7.473-7.5S68.363,57,64.254,57z M64.254,60
				c2.493,0,4.484,1.998,4.484,4.5S66.747,69,64.254,69c-2.492,0-4.483-1.998-4.483-4.5S61.762,60,64.254,60z M34.365,57
				c-4.11,0-7.473,3.375-7.473,7.5s3.363,7.5,7.473,7.5c4.109,0,7.472-3.375,7.472-7.5S38.474,57,34.365,57z M34.365,60
				c2.493,0,4.483,1.998,4.483,4.5S36.857,69,34.365,69c-2.493,0-4.484-1.998-4.484-4.5S31.872,60,34.365,60z M1.51,3
				c-2.002,0-2.023,3,0,3h10.736c0.221,1.065,1.913,9.165,3.928,18.69c1.07,5.058,2.164,10.218,3.042,14.298
				c0.876,4.08,1.51,6.98,1.758,7.898c0.395,1.482,0.765,3.165,1.853,4.633c1.082,1.463,2.989,2.478,5.56,2.478h41.821
				c2.571,0,4.478-1.015,5.565-2.478c1.085-1.471,1.453-3.15,1.854-4.636c0.26-0.995,0.67-3.309,1.225-6.21
				c0.548-2.91,0.456-4.059,1.054-6.621c0.493-1.839-2.559-2.64-2.905-0.678c-0.615,2.652-0.536,3.816-1.089,6.732
				c-0.553,2.918-1.037,5.496-1.172,6c-0.406,1.518-0.786,2.834-1.366,3.617c-0.58,0.786-1.255,1.272-3.162,1.272H28.387
				c-1.907,0-2.583-0.486-3.168-1.272c-0.577-0.779-0.957-2.1-1.363-3.615c-0.149-0.578-0.837-3.68-1.716-7.754
				c-0.876-4.074-1.973-9.229-3.04-14.292c-2.14-10.119-4.185-19.872-4.185-19.872c-0.144-0.69-0.753-1.188-1.465-1.188L1.51,3z
				 M25.404,15c-1.988,0-1.964,3,0,3H52.27c2.008,0,1.963-3,0-3H25.404z"/>
		</g>
	</g>
</g>
</svg>
